<svg width="152" height="62" viewBox="0 0 152 62" fill="none" xmlns="http://www.w3.org/2000/svg">
<g clip-path="url(#clip0_1_21)">
<path d="M41.2485 52.3414C45.5869 52.3414 49.1929 49.7388 50.7142 46.6735V51.7052H58.8276V7.75H50.7142V25.9683C49.0802 22.903 46.1504 20.7631 41.4175 20.7631C34.0366 20.7631 28.4586 26.6045 28.4586 36.5522V37.0149C28.4586 47.0784 34.0929 52.3414 41.2485 52.3414ZM43.6713 45.806C39.6146 45.806 36.7974 42.8563 36.7974 36.8414V36.3787C36.7974 30.3638 39.3328 27.1828 43.8966 27.1828C48.3478 27.1828 50.9396 30.2481 50.9396 36.2631V36.7257C50.9396 42.8563 47.9534 45.806 43.6713 45.806Z" fill="#121A24"/>
<path d="M72.137 52.3414C76.7571 52.3414 79.3489 50.4907 81.0392 48.0616V51.7052H88.9836V31.9832C88.9836 23.7705 83.8563 20.7631 76.6444 20.7631C69.4325 20.7631 63.9108 23.944 63.4037 31.1157H71.1228C71.4608 28.5131 72.9258 26.8358 76.1373 26.8358C79.856 26.8358 80.9265 28.8022 80.9265 32.3881V33.6026H77.6022C68.5873 33.6026 62.2769 36.2631 62.2769 43.319C62.2769 49.681 66.7843 52.3414 72.137 52.3414ZM74.5597 46.5C71.5735 46.5 70.2776 45.0541 70.2776 42.8563C70.2776 39.6175 73.0384 38.5765 77.7713 38.5765H80.9265V41.1213C80.9265 44.4757 78.1657 46.5 74.5597 46.5Z" fill="#121A24"/>
<path d="M94.2088 51.7052H102.322V21.4571H94.2088V51.7052ZM98.2092 17.3507C100.857 17.3507 102.886 15.3843 102.886 12.7817C102.886 10.1791 100.857 8.21269 98.2092 8.21269C95.6174 8.21269 93.589 10.1791 93.589 12.7817C93.589 15.3843 95.6174 17.3507 98.2092 17.3507Z" fill="#121A24"/>
<path d="M108.043 51.7052H116.157V7.75H108.043V51.7052Z" fill="#121A24"/>
<path d="M133.688 62L149.597 21.4571H141.819L135.173 39.6175L128.017 21.4571H119.228L131.025 48.8159L125.788 62H133.688Z" fill="#121A24"/>
<path d="M0.5 62H8.40391L32.7321 0H25.0216L0.5 62Z" fill="url(#paint0_linear_1_21)"/>
</g>
<defs>
<linearGradient id="paint0_linear_1_21" x1="17.2747" y1="-0.431839" x2="17.2747" y2="58.1249" gradientUnits="userSpaceOnUse">
<stop stop-color="#1BEBB9"/>
<stop offset="1" stop-color="#FF9254"/>
</linearGradient>
<clipPath id="clip0_1_21">
<rect width="151" height="62" fill="white" transform="translate(0.5)"/>
</clipPath>
</defs>
</svg>
