<svg width="512" height="147" viewBox="0 0 512 147" fill="none" xmlns="http://www.w3.org/2000/svg">
<path d="M70.7336 7.61146C72.1329 5.2892 74.1087 3.36807 76.4693 2.03447C78.8299 0.700882 81.4951 0 84.2064 0C86.9177 0 89.5829 0.700882 91.9435 2.03458C94.3041 3.36828 112.494 35.8155 113.893 38.1378C112.587 40.6971 68.0025 109.274 53.7104 135.554H72.9982L124.243 52.1653L147.209 90.7409L123.848 135.501L160.67 135.554L148.396 116.266L157.729 108.275L169.856 126.403C170.876 128.153 172.441 131.766 172.693 132.783C172.944 133.8 173.222 136.812 172.693 138.767C172.163 140.723 171.099 142.219 169.856 143.818C168.612 145.418 166.595 146.075 164.59 146.517H100.738L133.259 90.7409L124.243 75.9368L82.9264 146.517L30.947 146.516L100.315 38.1378L86.463 14.146C86.1125 13.5587 85.5443 13.1338 84.8819 12.9634C84.2196 12.793 83.5168 12.8911 82.9264 13.2365C81.1413 14.2133 14.5846 130.348 13.3383 131.695C13.1187 132.089 13.0071 132.534 13.0145 132.984C13.0219 133.435 13.1482 133.876 13.3807 134.262C13.6131 134.648 13.9433 134.966 14.338 135.184C14.7327 135.402 15.178 135.511 15.6287 135.501H23.902L18.2173 146.516H15.6286C13.5841 146.529 9.79677 146.516 9.79677 146.516C7.90495 145.741 5.98713 145.262 4.53988 143.818C3.09264 142.374 1.94633 140.657 1.16711 138.767C0.387887 136.877 -0.00884036 134.851 0.000149427 132.807C-0.00177696 130.106 0.719332 127.455 2.08856 125.127L70.7336 7.61146Z" fill="#0A6CE8"/>
<path d="M206.905 36.0688C206.905 35.5166 207.353 35.0688 207.905 35.0688H222.97C223.376 35.0688 223.741 35.3142 223.895 35.6897L245.885 89.3628C245.986 89.6103 246.228 89.7721 246.495 89.7721C246.763 89.7721 247.004 89.6103 247.105 89.3628L269.095 35.6897C269.249 35.3142 269.615 35.0688 270.02 35.0688H285.085C285.637 35.0688 286.085 35.5166 286.085 36.0688V109.562C286.085 110.115 285.637 110.562 285.085 110.562H273.962C273.41 110.562 272.962 110.115 272.962 109.562V59.1157C272.962 58.8847 272.775 58.6974 272.544 58.6974C272.373 58.6974 272.22 58.8009 272.156 58.959L251.65 109.716C251.498 110.094 251.131 110.341 250.723 110.341H242.267C241.86 110.341 241.493 110.093 241.34 109.715L220.834 58.8486C220.77 58.6904 220.617 58.5868 220.446 58.5868C220.215 58.5868 220.028 58.774 220.028 59.0049V109.562C220.028 110.115 219.58 110.562 219.028 110.562H207.905C207.353 110.562 206.905 110.115 206.905 109.562V36.0688Z" fill="black"/>
<path d="M307.588 110.562C307.036 110.562 306.588 110.115 306.588 109.562V58.5915C306.588 58.0392 307.036 57.5915 307.588 57.5915H318.932C319.484 57.5915 319.932 58.0393 319.932 58.5915V109.562C319.932 110.115 319.484 110.562 318.932 110.562H307.588ZM313.297 49.5556C311.184 49.5556 309.365 48.8552 307.841 47.4545C306.318 46.0292 305.556 44.3212 305.556 42.3307C305.556 40.3155 306.318 38.6076 307.841 37.2068C309.365 35.7815 311.184 35.0688 313.297 35.0688C315.435 35.0688 317.253 35.7815 318.753 37.2068C320.276 38.6076 321.038 40.3155 321.038 42.3307C321.038 44.3212 320.276 46.0292 318.753 47.4545C317.253 48.8552 315.435 49.5556 313.297 49.5556Z" fill="black"/>
<path d="M382.357 66.7449C382.494 67.3116 382.089 67.8563 381.509 67.9196L371.262 69.0374C370.776 69.0904 370.328 68.7815 370.153 68.3247C369.797 67.3932 369.283 66.5064 368.613 65.6643C367.778 64.583 366.647 63.7106 365.222 63.0471C363.797 62.3836 362.052 62.0518 359.988 62.0518C357.211 62.0518 354.876 62.6539 352.984 63.8581C351.116 65.0622 350.195 66.6227 350.219 68.5396C350.195 70.1861 350.797 71.5254 352.025 72.5575C353.279 73.5896 355.343 74.4375 358.218 75.101L367.876 77.1653C373.233 78.3203 377.215 80.1511 379.819 82.6577C382.449 85.1643 383.776 88.445 383.801 92.4999C383.776 96.0632 382.732 99.2088 380.667 101.937C378.628 104.64 375.789 106.753 372.152 108.277C368.515 109.8 364.337 110.562 359.619 110.562C352.689 110.562 347.111 109.112 342.884 106.213C338.943 103.486 336.487 99.7671 335.515 95.0547C335.399 94.4914 335.81 93.9647 336.382 93.9096L347.466 92.842C347.966 92.7939 348.419 93.1255 348.566 93.6053C349.223 95.7442 350.4 97.3909 352.099 98.5452C354.016 99.8477 356.51 100.499 359.582 100.499C362.752 100.499 365.296 99.8477 367.213 98.5452C369.154 97.2428 370.125 95.6332 370.125 93.7163C370.125 92.0944 369.498 90.7551 368.245 89.6983C367.016 88.6416 365.099 87.8307 362.494 87.2655L352.836 85.238C347.405 84.1076 343.387 82.2031 340.783 79.5244C338.178 76.8212 336.887 73.4053 336.912 69.2768C336.887 65.7872 337.834 62.7645 339.75 60.2087C341.692 57.6284 344.383 55.6378 347.823 54.2371C351.288 52.8118 355.282 52.0991 359.803 52.0991C366.439 52.0991 371.661 53.5121 375.47 56.3382C379.018 58.9543 381.314 62.4232 382.357 66.7449Z" fill="black"/>
<path d="M402.005 110.562C401.452 110.562 401.005 110.115 401.005 109.562V58.5915C401.005 58.0393 401.452 57.5915 402.005 57.5915H413.349C413.901 57.5915 414.349 58.0393 414.349 58.5915V109.562C414.349 110.115 413.901 110.562 413.349 110.562H402.005ZM407.713 49.5556C405.6 49.5556 403.782 48.8553 402.258 47.4545C400.734 46.0292 399.972 44.3212 399.972 42.3307C399.972 40.3156 400.734 38.6076 402.258 37.2069C403.782 35.7815 405.6 35.0689 407.713 35.0689C409.851 35.0689 411.67 35.7815 413.169 37.2069C414.693 38.6076 415.454 40.3156 415.454 42.3307C415.454 44.3212 414.693 46.0292 413.169 47.4545C411.67 48.8553 409.851 49.5556 407.713 49.5556Z" fill="black"/>
<path d="M446.124 91.0494C445.497 91.6888 444.411 91.247 444.409 90.3521L444.379 77.0983C444.378 76.8342 444.482 76.5807 444.668 76.3929L466.57 54.2391C466.758 54.0491 467.014 53.9422 467.281 53.9422H480.078C480.963 53.9422 481.412 55.0089 480.792 55.6418L446.124 91.0494ZM433.25 110.562C432.698 110.562 432.25 110.115 432.25 109.562V36.0688C432.25 35.5166 432.698 35.0688 433.25 35.0688H444.594C445.146 35.0688 445.594 35.5166 445.594 36.0688V109.562C445.594 110.115 445.146 110.562 444.594 110.562H433.25ZM468.219 110.562C467.942 110.562 467.678 110.448 467.489 110.245L444.052 85.186C443.611 84.714 443.726 83.9536 444.288 83.6339L453.02 78.6627C453.423 78.4333 453.931 78.511 454.246 78.8506L482.182 108.881C482.777 109.521 482.324 110.562 481.45 110.562H468.219Z" fill="black"/>
<path d="M498.55 110.562C497.998 110.562 497.55 110.115 497.55 109.562V58.5916C497.55 58.0393 497.998 57.5916 498.55 57.5916H509.894C510.446 57.5916 510.894 58.0393 510.894 58.5916V109.562C510.894 110.115 510.446 110.562 509.894 110.562H498.55ZM504.259 49.5556C502.145 49.5556 500.327 48.8553 498.803 47.4545C497.28 46.0292 496.518 44.3212 496.518 42.3307C496.518 40.3156 497.28 38.6076 498.803 37.2069C500.327 35.7815 502.145 35.0689 504.259 35.0689C506.397 35.0689 508.215 35.7815 509.714 37.2069C511.238 38.6076 512 40.3156 512 42.3307C512 44.3212 511.238 46.0292 509.714 47.4545C508.215 48.8553 506.397 49.5556 504.259 49.5556Z" fill="black"/>
</svg>
