<svg width="16" height="16" viewBox="0 0 16 16" fill="none" xmlns="http://www.w3.org/2000/svg">
<path fillRule="evenodd" clipRule="evenodd" d="M4 5C2.89543 5 2 5.89543 2 7V9C2 10.1046 2.89543 11 4 11H8C9.10457 11 10 10.1046 10 9V7C10 5.89543 9.10457 5 8 5H4ZM11 7.44906C11 7.16343 11.1221 6.89142 11.3356 6.70165L12.3356 5.81276C12.9805 5.23952 14 5.69733 14 6.56018V9.43982C14 10.3027 12.9805 10.7605 12.3356 10.1872L11.3356 9.29834C11.1221 9.10857 11 8.83657 11 8.55093V7.44906Z" fill="#fff"/>
</svg>
