<svg width="16" height="16" viewBox="0 0 16 16" fill="fff" xmlns="http://www.w3.org/2000/svg">
<path fill-rule="evenodd" clip-rule="evenodd" d="M11.3333 3H4.66667C3.74619 3 3 3.74619 3 4.66667V9.33333C3 10.2538 3.74619 11 4.66667 11H11.3333C12.2538 11 13 10.2538 13 9.33333V4.66667C13 3.74619 12.2538 3 11.3333 3ZM4 4.66667C4 4.29848 4.29848 4 4.66667 4H11.3333C11.7015 4 12 4.29848 12 4.66667V9.33333C12 9.70152 11.7015 10 11.3333 10H4.66667C4.29848 10 4 9.70152 4 9.33333V4.66667ZM5.33333 12C5.05719 12 4.83333 12.2239 4.83333 12.5C4.83333 12.7761 5.05719 13 5.33333 13H10.6667C10.9428 13 11.1667 12.7761 11.1667 12.5C11.1667 12.2239 10.9428 12 10.6667 12H5.33333Z" fill="#fff"/>
</svg>
